# xmcd
#
# Track frame offsets: 
#        300
#        28152
#        47506
#        74144
#        100715
#        119501
#        160936
#        183291
#        203822
#        222994
#        246524
#        269061
#        301362
#
# Disc length: 4261 seconds
#
# Revision: 0
# Processed by: cddbd v1.5.2PL0 Copyright (c) Steve Scherf et al.
# Submitted via: ExactAudioCopy v1.0b1
#
DISCID=ca10a10d
DTITLE=Jimmy Dawkins - Kant Sheck Dees Bluze
DYEAR=1991
DGENRE=Chicago Blues
TTITLE0=A Love Like That
TTITLE1=Beetin Nockin Ringin
TTITLE2=Get On The Ball
TTITLE3=Gittar Rapp
TTITLE4=Gotta Hold On
TTITLE5=I Ain't Got It
TTITLE6=Kant Sheck Dees Bluze
TTITLE7=Luv Sumbody
TTITLE8=Made The Hard Way
TTITLE9=My Man Loves Me
TTITLE10=Rockin D. Blues
TTITLE11=Too Bad Baby
TTITLE12=Wes Cide Bluze
EXTD=
EXTT0=
EXTT1=
EXTT2=
EXTT3=
EXTT4=
EXTT5=
EXTT6=
EXTT7=
EXTT8=
EXTT9=
EXTT10=
EXTT11=
EXTT12=
PLAYORDER=
